<mxfile host="app.diagrams.net" agent="Mozilla/5.0 (X11; Linux x86_64; rv:136.0) Gecko/20100101 Firefox/136.0" version="26.1.3">
  <diagram name="Page-1" id="tlsySvftn08AJUCwG9jQ">
    <mxGraphModel dx="1272" dy="892" grid="1" gridSize="10" guides="1" tooltips="1" connect="1" arrows="1" fold="1" page="1" pageScale="1" pageWidth="850" pageHeight="1100" math="0" shadow="0">
      <root>
        <mxCell id="0" />
        <mxCell id="1" parent="0" />
        <mxCell id="iNCFMPTZiq6PbVHQIrTp-1" value="&lt;h1&gt;Bắt đầu&lt;/h1&gt;" style="ellipse;whiteSpace=wrap;html=1;" vertex="1" parent="1">
          <mxGeometry x="365" y="40" width="120" height="80" as="geometry" />
        </mxCell>
        <mxCell id="iNCFMPTZiq6PbVHQIrTp-3" value="" style="edgeStyle=orthogonalEdgeStyle;rounded=0;orthogonalLoop=1;jettySize=auto;html=1;" edge="1" parent="1" source="iNCFMPTZiq6PbVHQIrTp-2" target="iNCFMPTZiq6PbVHQIrTp-1">
          <mxGeometry relative="1" as="geometry" />
        </mxCell>
        <mxCell id="iNCFMPTZiq6PbVHQIrTp-2" value="&lt;h2&gt;Cài đặt&lt;/h2&gt;" style="rounded=1;whiteSpace=wrap;html=1;" vertex="1" parent="1">
          <mxGeometry x="353" y="160" width="145" height="40" as="geometry" />
        </mxCell>
        <mxCell id="iNCFMPTZiq6PbVHQIrTp-5" value="" style="edgeStyle=orthogonalEdgeStyle;rounded=0;orthogonalLoop=1;jettySize=auto;html=1;" edge="1" parent="1" target="iNCFMPTZiq6PbVHQIrTp-2">
          <mxGeometry relative="1" as="geometry">
            <mxPoint x="425" y="240" as="sourcePoint" />
          </mxGeometry>
        </mxCell>
        <mxCell id="iNCFMPTZiq6PbVHQIrTp-6" value="&lt;h2&gt;Khởi động web&lt;/h2&gt;" style="rounded=1;whiteSpace=wrap;html=1;" vertex="1" parent="1">
          <mxGeometry x="348" y="240" width="155" height="40" as="geometry" />
        </mxCell>
        <mxCell id="iNCFMPTZiq6PbVHQIrTp-39" value="" style="edgeStyle=orthogonalEdgeStyle;rounded=0;orthogonalLoop=1;jettySize=auto;html=1;" edge="1" parent="1" source="iNCFMPTZiq6PbVHQIrTp-8" target="iNCFMPTZiq6PbVHQIrTp-10">
          <mxGeometry relative="1" as="geometry" />
        </mxCell>
        <mxCell id="iNCFMPTZiq6PbVHQIrTp-8" value="&lt;h2&gt;Nhấn nút&lt;/h2&gt;" style="rhombus;whiteSpace=wrap;html=1;" vertex="1" parent="1">
          <mxGeometry x="160" y="360" width="160" height="120" as="geometry" />
        </mxCell>
        <mxCell id="iNCFMPTZiq6PbVHQIrTp-17" style="edgeStyle=orthogonalEdgeStyle;rounded=0;orthogonalLoop=1;jettySize=auto;html=1;entryX=0.25;entryY=1;entryDx=0;entryDy=0;" edge="1" parent="1" source="iNCFMPTZiq6PbVHQIrTp-10" target="iNCFMPTZiq6PbVHQIrTp-15">
          <mxGeometry relative="1" as="geometry" />
        </mxCell>
        <mxCell id="iNCFMPTZiq6PbVHQIrTp-10" value="&lt;h2&gt;Đổi trạng thái led&lt;/h2&gt;" style="rounded=1;whiteSpace=wrap;html=1;" vertex="1" parent="1">
          <mxGeometry x="180" y="530" width="120" height="60" as="geometry" />
        </mxCell>
        <mxCell id="iNCFMPTZiq6PbVHQIrTp-23" style="edgeStyle=orthogonalEdgeStyle;rounded=0;orthogonalLoop=1;jettySize=auto;html=1;entryX=0.5;entryY=0;entryDx=0;entryDy=0;" edge="1" parent="1" source="iNCFMPTZiq6PbVHQIrTp-15" target="iNCFMPTZiq6PbVHQIrTp-22">
          <mxGeometry relative="1" as="geometry" />
        </mxCell>
        <mxCell id="iNCFMPTZiq6PbVHQIrTp-28" value="" style="edgeStyle=orthogonalEdgeStyle;rounded=0;orthogonalLoop=1;jettySize=auto;html=1;" edge="1" parent="1" source="iNCFMPTZiq6PbVHQIrTp-15" target="iNCFMPTZiq6PbVHQIrTp-6">
          <mxGeometry relative="1" as="geometry" />
        </mxCell>
        <mxCell id="iNCFMPTZiq6PbVHQIrTp-32" style="edgeStyle=orthogonalEdgeStyle;rounded=0;orthogonalLoop=1;jettySize=auto;html=1;entryX=0.5;entryY=0;entryDx=0;entryDy=0;" edge="1" parent="1" source="iNCFMPTZiq6PbVHQIrTp-15" target="iNCFMPTZiq6PbVHQIrTp-19">
          <mxGeometry relative="1" as="geometry" />
        </mxCell>
        <mxCell id="iNCFMPTZiq6PbVHQIrTp-40" style="edgeStyle=orthogonalEdgeStyle;rounded=0;orthogonalLoop=1;jettySize=auto;html=1;entryX=0.5;entryY=0;entryDx=0;entryDy=0;" edge="1" parent="1" source="iNCFMPTZiq6PbVHQIrTp-15" target="iNCFMPTZiq6PbVHQIrTp-8">
          <mxGeometry relative="1" as="geometry" />
        </mxCell>
        <mxCell id="iNCFMPTZiq6PbVHQIrTp-15" value="&lt;h2&gt;Vòng lặp&lt;/h2&gt;" style="rounded=1;whiteSpace=wrap;html=1;" vertex="1" parent="1">
          <mxGeometry x="365" y="320" width="120" height="40" as="geometry" />
        </mxCell>
        <mxCell id="iNCFMPTZiq6PbVHQIrTp-19" value="&lt;h1&gt;Kết thúc&lt;/h1&gt;" style="ellipse;whiteSpace=wrap;html=1;" vertex="1" parent="1">
          <mxGeometry x="365" y="680" width="120" height="80" as="geometry" />
        </mxCell>
        <mxCell id="iNCFMPTZiq6PbVHQIrTp-37" value="" style="edgeStyle=orthogonalEdgeStyle;rounded=0;orthogonalLoop=1;jettySize=auto;html=1;" edge="1" parent="1" source="iNCFMPTZiq6PbVHQIrTp-22" target="iNCFMPTZiq6PbVHQIrTp-27">
          <mxGeometry relative="1" as="geometry" />
        </mxCell>
        <mxCell id="iNCFMPTZiq6PbVHQIrTp-22" value="&lt;h2&gt;Đọc cảm biến&lt;/h2&gt;" style="rhombus;whiteSpace=wrap;html=1;" vertex="1" parent="1">
          <mxGeometry x="520" y="360" width="160" height="120" as="geometry" />
        </mxCell>
        <mxCell id="iNCFMPTZiq6PbVHQIrTp-25" style="edgeStyle=orthogonalEdgeStyle;rounded=0;orthogonalLoop=1;jettySize=auto;html=1;entryX=0.109;entryY=1.011;entryDx=0;entryDy=0;entryPerimeter=0;" edge="1" parent="1" source="iNCFMPTZiq6PbVHQIrTp-8" target="iNCFMPTZiq6PbVHQIrTp-15">
          <mxGeometry relative="1" as="geometry" />
        </mxCell>
        <mxCell id="iNCFMPTZiq6PbVHQIrTp-26" style="edgeStyle=orthogonalEdgeStyle;rounded=0;orthogonalLoop=1;jettySize=auto;html=1;entryX=0.933;entryY=1.011;entryDx=0;entryDy=0;entryPerimeter=0;" edge="1" parent="1" source="iNCFMPTZiq6PbVHQIrTp-22" target="iNCFMPTZiq6PbVHQIrTp-15">
          <mxGeometry relative="1" as="geometry" />
        </mxCell>
        <mxCell id="iNCFMPTZiq6PbVHQIrTp-36" value="" style="edgeStyle=orthogonalEdgeStyle;rounded=0;orthogonalLoop=1;jettySize=auto;html=1;" edge="1" parent="1" source="iNCFMPTZiq6PbVHQIrTp-27" target="iNCFMPTZiq6PbVHQIrTp-34">
          <mxGeometry relative="1" as="geometry" />
        </mxCell>
        <mxCell id="iNCFMPTZiq6PbVHQIrTp-27" value="&lt;h2&gt;Cập nhật nhiệt độ&amp;nbsp;&lt;/h2&gt;&lt;h2&gt;&amp;amp; độ ẩm&lt;/h2&gt;" style="rounded=1;whiteSpace=wrap;html=1;" vertex="1" parent="1">
          <mxGeometry x="510" y="520" width="180" height="80" as="geometry" />
        </mxCell>
        <mxCell id="iNCFMPTZiq6PbVHQIrTp-34" value="&lt;h2&gt;Gửi dữ liệu tới web&lt;/h2&gt;" style="rounded=1;whiteSpace=wrap;html=1;fontFamily=Helvetica;" vertex="1" parent="1">
          <mxGeometry x="510" y="640" width="180" height="40" as="geometry" />
        </mxCell>
        <mxCell id="iNCFMPTZiq6PbVHQIrTp-38" style="edgeStyle=orthogonalEdgeStyle;rounded=0;orthogonalLoop=1;jettySize=auto;html=1;entryX=0.805;entryY=1.06;entryDx=0;entryDy=0;entryPerimeter=0;" edge="1" parent="1" source="iNCFMPTZiq6PbVHQIrTp-34" target="iNCFMPTZiq6PbVHQIrTp-15">
          <mxGeometry relative="1" as="geometry" />
        </mxCell>
        <mxCell id="iNCFMPTZiq6PbVHQIrTp-41" value="Sai" style="text;html=1;align=center;verticalAlign=middle;whiteSpace=wrap;rounded=0;" vertex="1" parent="1">
          <mxGeometry x="320" y="390" width="60" height="30" as="geometry" />
        </mxCell>
        <mxCell id="iNCFMPTZiq6PbVHQIrTp-42" value="Sai" style="text;html=1;align=center;verticalAlign=middle;whiteSpace=wrap;rounded=0;" vertex="1" parent="1">
          <mxGeometry x="470" y="390" width="60" height="30" as="geometry" />
        </mxCell>
        <mxCell id="iNCFMPTZiq6PbVHQIrTp-43" value="Đúng" style="text;html=1;align=center;verticalAlign=middle;whiteSpace=wrap;rounded=0;" vertex="1" parent="1">
          <mxGeometry x="240" y="480" width="60" height="30" as="geometry" />
        </mxCell>
        <mxCell id="iNCFMPTZiq6PbVHQIrTp-44" value="Đúng" style="text;html=1;align=center;verticalAlign=middle;whiteSpace=wrap;rounded=0;" vertex="1" parent="1">
          <mxGeometry x="540" y="480" width="60" height="30" as="geometry" />
        </mxCell>
      </root>
    </mxGraphModel>
  </diagram>
</mxfile>
